<?xml version="1.0" standalone="no"?><!DOCTYPE svg PUBLIC "-//W3C//DTD SVG 1.1//EN" "http://www.w3.org/Graphics/SVG/1.1/DTD/svg11.dtd"><svg t="1683284590517" class="icon" viewBox="0 0 1024 1024" version="1.1" xmlns="http://www.w3.org/2000/svg" p-id="1891" xmlns:xlink="http://www.w3.org/1999/xlink" width="200" height="200"><path d="M48.31849 143.451517c11.327646-20.47936 37.246836-27.775132 58.686166-18.495422l10.303678 4.47986a1566.799038 1566.799038 0 0 0 604.269117 129.979938 44.926596 44.926596 0 0 1 41.470704 60.286116 44.15862 44.15862 0 0 1-42.046686 29.183088h-0.63998a1664.395988 1664.395988 0 0 1-169.466704-11.263648 5.055842 5.055842 0 0 0-5.43983 6.591794c11.135652 32.830974 32.830974 70.973782 75.83763 94.205056a5.247836 5.247836 0 0 0 5.11984-0.127996L842.405675 307.222399a44.670604 44.670604 0 1 1 46.39855 76.413612l-279.67126 169.722697a63.870004 63.870004 0 0 0-30.527046 54.270304v371.572388a44.7986 44.7986 0 0 1-49.150464 44.542608c-23.295272-2.23993-40.31874-23.03928-40.318741-46.462548V607.69301c0-4.287866 0.31999-8.511734 0.703978-12.7996a4.927846 4.927846 0 0 0-1.91994-4.47986 496.816474 496.816474 0 0 1-191.610012-300.150621 4.991844 4.991844 0 0 0-3.51989-3.83988 1669.067842 1669.067842 0 0 1-211.065404-74.87766l-12.15962-5.247836a44.7986 44.7986 0 0 1-21.11934-62.846036zM448.049998 0.031999a91.645136 91.645136 0 1 1 0 183.226274A91.645136 91.645136 0 0 1 447.986 0.031999z" fill="#FCAB2E" p-id="1892"></path></svg>